<svg xmlns="http://www.w3.org/2000/svg" version="1.1" xmlns:xlink="http://www.w3.org/1999/xlink" width="4400" height="4455"><svg width="4400" height="4455" viewBox="0 0 4400 4455" fill="none" xmlns="http://www.w3.org/2000/svg">
<path d="M2093.84 2159.52C914.336 3043.62 562.936 4400.22 562.936 4400.22" stroke="#698CF7" stroke-width="108.5" stroke-linecap="round" stroke-linejoin="round"></path>
<path d="M1845.33 921.946C1845.33 921.946 1606.64 1700.35 2100.84 2155.35C2100.84 2155.35 2204.44 2753.15 2968.84 2961.75" stroke="#698CF7" stroke-width="108.5" stroke-linecap="round" stroke-linejoin="round"></path>
<path d="M2100.12 2155.32C2641.92 2025.82 3272.62 2196.62 3272.62 2196.62" stroke="#698CF7" stroke-width="108.5" stroke-linecap="round" stroke-linejoin="round"></path>
<path d="M2654.66 1060.54C2654.66 1060.54 2118.46 1414.04 2081.36 2082.54" stroke="#698CF7" stroke-width="108.5" stroke-linecap="round" stroke-linejoin="round"></path>
<path d="M3147.39 1504.33C3147.39 1504.33 2432.69 1708.03 2147.09 2095.83" stroke="#698CF7" stroke-width="108.5" stroke-linecap="round" stroke-linejoin="round"></path>
<path d="M1955.27 1036.73C2124.67 1016.43 2245.07 863.132 2224.77 693.732C2204.47 524.332 2051.17 403.932 1881.77 424.232C1712.37 444.532 1591.97 597.832 1612.27 767.232C1632.57 936.632 1785.87 1057.03 1955.27 1036.73Z" fill="#698CF7" stroke="#698CF7" stroke-width="49.7" stroke-linecap="round" stroke-linejoin="round"></path>
<path d="M2857.61 1143.13C3027.01 1122.83 3147.41 969.534 3127.11 800.134C3106.81 630.734 2953.51 510.334 2784.11 530.634C2614.71 550.934 2494.31 704.234 2514.61 873.634C2534.91 1043.03 2688.21 1163.43 2857.61 1143.13Z" fill="#698CF7" stroke="#698CF7" stroke-width="49.7" stroke-linecap="round" stroke-linejoin="round"></path>
<path d="M3451.79 1724.84C3621.19 1704.54 3741.59 1551.24 3721.29 1381.84C3700.99 1212.44 3547.69 1092.04 3378.29 1112.34C3208.89 1132.64 3088.49 1285.94 3108.79 1455.34C3129.09 1624.74 3282.39 1745.14 3451.79 1724.84Z" fill="#698CF7" stroke="#698CF7" stroke-width="49.7" stroke-linecap="round" stroke-linejoin="round"></path>
<path d="M3565.27 2578.82C3734.67 2558.52 3855.07 2405.22 3834.77 2235.82C3814.47 2066.42 3661.17 1946.02 3491.77 1966.32C3322.37 1986.62 3201.97 2139.92 3222.27 2309.32C3242.57 2478.72 3395.87 2599.12 3565.27 2578.82Z" fill="#698CF7" stroke="#698CF7" stroke-width="49.7" stroke-linecap="round" stroke-linejoin="round"></path>
<path d="M3117.38 3307.53C3286.78 3287.23 3407.18 3133.93 3386.88 2964.53C3366.58 2795.13 3213.28 2674.73 3043.88 2695.03C2874.48 2715.33 2754.08 2868.63 2774.38 3038.03C2794.68 3207.43 2947.98 3327.83 3117.38 3307.53Z" fill="#698CF7" stroke="#698CF7" stroke-width="49.7" stroke-linecap="round" stroke-linejoin="round"></path>
<path d="M2097.48 2262.42C2164.68 2254.72 2212.28 2193.82 2204.58 2126.62C2196.88 2059.42 2135.98 2011.82 2068.78 2019.52C2001.58 2027.22 1953.98 2088.12 1961.68 2155.32C1969.38 2222.52 2030.28 2270.12 2097.48 2262.42Z" fill="#698CF7" stroke="#698CF7" stroke-width="19.6" stroke-linecap="round" stroke-linejoin="round"></path>
</svg><style>@media (prefers-color-scheme: light) { :root { filter: none; } }
@media (prefers-color-scheme: dark) { :root { filter: none; } }
</style></svg>